<svg xmlns="http://www.w3.org/2000/svg" fill="none" viewBox="0 0 24 24" id="addwhatsappstatus"><path fill="#1e306e" fill-rule="evenodd" d="M12 3.5a8.5 8.5 0 0 0-7.183 13.047.5.5 0 0 1 .052.426L3.791 20.21l3.236-1.078a.5.5 0 0 1 .426.052A8.5 8.5 0 1 0 12 3.5ZM2.5 12a9.5 9.5 0 1 1 4.621 8.153l-3.963 1.321a.5.5 0 0 1-.632-.632l1.32-3.963A9.458 9.458 0 0 1 2.5 12Z" clip-rule="evenodd" class="color000000 svgShape"></path><path fill="#1e306e" fill-rule="evenodd" d="M8.111 8.11a5.477 5.477 0 0 0-1.424 2.467l.966.258a4.477 4.477 0 0 1 1.165-2.017 4.477 4.477 0 0 1 2.017-1.165l-.258-.967A5.477 5.477 0 0 0 8.11 8.111zm-1.424 5.313A5.477 5.477 0 0 0 8.11 15.89a5.477 5.477 0 0 0 2.466 1.425l.258-.967a4.477 4.477 0 0 1-2.017-1.165 4.477 4.477 0 0 1-1.165-2.017l-.966.258zm6.736 3.89a5.477 5.477 0 0 0 2.466-1.424 5.477 5.477 0 0 0 1.425-2.466l-.967-.258a4.477 4.477 0 0 1-1.165 2.017c-.58.58-1.278.968-2.017 1.165l.258.966zM14.5 11.5v-5h1v5h-1z" clip-rule="evenodd" class="color000000 svgShape"></path><path fill="#1e306e" fill-rule="evenodd" d="M17.5 9.5h-5v-1h5v1Z" clip-rule="evenodd" class="color000000 svgShape"></path></svg>